<?xml version="1.0" encoding="utf-8"?>
<!-- Generator: Adobe Illustrator 27.8.0, SVG Export Plug-In . SVG Version: 6.00 Build 0)  -->
<svg version="1.1" id="_レイヤー_2" xmlns="http://www.w3.org/2000/svg" xmlns:xlink="http://www.w3.org/1999/xlink" x="0px"
	 y="0px" viewBox="0 0 124.3 26" style="enable-background:new 0 0 124.3 26;" xml:space="preserve">
<style type="text/css">
	.st0{fill:#CC0000;}
</style>
<g id="_レイヤー_1-2">
	<g>
		<g>
			<path class="st0" d="M28.9,19c-1.9,2.7-5,4.5-8.6,4.5c-5.8,0-10.5-4.7-10.5-10.5S14.5,2.5,20.3,2.5c2,0,3.9,0.6,5.5,1.6L20.3,13
				l10.4-6c-1.7-2.6-4.1-4.6-7.1-5.7C21.3,0.5,18.8,0,16.2,0S11,0.5,8.7,1.3C6.3,2.2,4.2,3.7,2.6,5.6C1,7.6,0,10.2,0,13
				s1,5.4,2.6,7.4c1.6,1.9,3.7,3.4,6.1,4.3c2.3,0.9,4.8,1.3,7.4,1.3c1.7,0,3.3-0.2,4.9-0.5c3.2-0.8,6.1-2.5,8.3-4.8L28.9,19L28.9,19
				z"/>
			<path class="st0" d="M72.8,4.4c-0.6,0-1.1,0.1-1.6,0.4l-6.1,2.8c-0.3-1.8-1.9-3.2-3.8-3.2c-0.6,0-1.1,0.1-1.6,0.4l-7.4,3.5h5.2
				v17.1h7.6V10.2c0-1.1,0.8-1.9,1.9-1.9S69,9.1,69,10.2v15.2h7.6V8.2C76.6,6.1,74.9,4.4,72.8,4.4L72.8,4.4z"/>
			<path class="st0" d="M120.5,4.4c-0.6,0-1.1,0.1-1.6,0.4l-6.1,2.8c-0.3-1.8-1.9-3.2-3.8-3.2c-0.6,0-1.1,0.1-1.6,0.4l-7.4,3.5h5.2
				v17.1h7.6V10.2c0-1.1,0.8-1.9,1.9-1.9s1.9,0.9,1.9,1.9v15.2h7.6V8.2C124.3,6.1,122.6,4.4,120.5,4.4L120.5,4.4z"/>
			<path class="st0" d="M90.5,4.4c-5.9,0-10.8,4.8-10.8,10.8S84.6,26,90.5,26s10.8-4.8,10.8-10.8S96.5,4.4,90.5,4.4z M93,24.4
				c-1.3,0.3-2.6-0.4-2.9-1.7L86.4,8.9C86,7.7,86.8,6.4,88.1,6s2.6,0.4,2.9,1.7l3.7,13.8C95,22.8,94.2,24.1,93,24.4z"/>
			<path class="st0" d="M45.3,19c0,2.1-1.7,3.8-3.8,3.8s-3.8-1.7-3.8-3.8s1.7-3.8,3.8-3.8C43.6,15.2,45.3,16.9,45.3,19z M47.3,25.4
				h7.6L50.5,9c-0.7-2.6-3.1-4.6-6-4.6c-0.7,0-1.5,0.1-2.1,0.4L33,8.2h9.7l1.7,6.2c-1.6-1.4-3.7-2.2-6-2.2c-1.7,0-3.3,0.4-4.7,1.2
				c-1.1,0.6-2,1.5-2.7,2.5c-0.5,0.9-0.9,2-0.9,3.1s0.3,2.2,0.9,3.1c0.6,1.1,1.6,1.9,2.7,2.5c1.4,0.8,3,1.2,4.7,1.2
				c3.3,0,6.2-1.6,8-4.1L47.3,25.4L47.3,25.4z"/>
		</g>
	</g>
</g>
</svg>
